<svg id="Layer_1" data-name="Layer 1" xmlns="http://www.w3.org/2000/svg" viewBox="0 0 300.26 468.32"><defs><style>.cls-1{fill:#232320}.cls-2{fill:#fff}.cls-3{fill:#caba9f}</style></defs><title>R31Logo</title><path class="cls-1" d="M385 56l-78.4 78.43" transform="translate(-84.73 -31.81)"/><path class="cls-2" d="M60.73 390.32L42.87 370.8l124.98-128.13H50.55l112.19-113.8H41.93v-26.23h185.12L113.9 216.44h118.34L60.73 390.32z"/><path class="cls-2" d="M274.32 309.89l-26.23-11.65v-167.4h-24.65l27.88-28.23h23v207.28z"/><path class="cls-3" d="M30.99 359.52L0 327.45V102.64h26.23v213.19L50 340.5l-19.01 19.02zm105.33 108.64l136-140.71-26.23-11.62-109.93 113.53-46.12-46.84-18.53 18.97L136 468.16l.16.16.16-.16z"/><path class="cls-3" d="M121.42 32l11 10.56V64.9l-6.32 6.74 6.29 6.36v28.69h-15.21V78H99.73l.16 29.11H84.73v-75.3zM99.88 47.18v16h17.3v-16h-17.3zm50.29-14.95h26.92l10.5 10.51V97l-10.5 10.09h-26.5l-11-10.92V42.74zm5 15.16v45h17.25v-45h-17.23zm40.18-15.16l15.58-.23v59.92h16.77V32.23h15.16v63.92l-10.5 10.92h-26.5l-10.51-10.5V32.23zm56.55 0H271l15.57 42-.21-42h14.9v74.84h-19.73l-14.69-44.58.1 44.58h-14.83zm59.43 0h37.16L359 42.79v51.74L346.72 107h-35.39V32.23zM326.54 47v45.18h17.3V47h-17.3z" transform="translate(-84.73 -31.81)"/></svg>