<svg id="Слой_1" data-name="Слой 1" xmlns="http://www.w3.org/2000/svg" viewBox="0 0 414.22 413.89"><defs><style>.cls-1{fill:#fff}</style></defs><title>sklogo</title><path class="cls-1" d="M61.21 293H5.75c-.1-1.73-.28-3.32-.28-4.91 0-30-.08-60 0-90C5.67 131 55 74.07 121.48 64.91c12.47-1.72 25.25-1.48 37.89-1.5q100.45-.12 200.9.11c1.58 0 3.16.16 6.12.32-2.64 2.1-4.25 3.4-5.88 4.68C343.71 81.65 327 94.84 310 107.77a14.34 14.34 0 0 1-8.09 2.73c-47.31.16-94.63.63-141.93 0-53.19-.73-92.81 40.83-97.61 86.74-.72 6.93-.77 13.94-.81 20.92-.12 23.32-.08 46.64-.12 70 .01 1.41-.13 2.84-.23 4.84zm-1.89 183.14l38.2-27.95a29.29 29.29 0 0 0 3.61-2.67c11.88-11.93 26.19-14.34 42.67-13.95 41.8 1 83.65.61 125.47.14a144.62 144.62 0 0 0 33.05-4.15c31.63-7.88 50-29.21 56.91-60.42a169.89 169.89 0 0 0 4-33.13c.56-27 .2-54 .2-81v-5.72h55.75c.1 1.44.29 2.87.29 4.3 0 31.33.62 62.68-.22 94-1.82 67.33-51.8 121.33-112.2 129.89a158.34 158.34 0 0 1-21.85 1.72q-110 .19-220 .08h-5.44z" transform="translate(-5.43 -63.39)"/><path class="cls-1" d="M189.29 245.49c9.44.67 18.41 1 27.28 2 17 2.06 33.28 6.65 47.9 16 19.63 12.49 31 30.59 36.12 53 5 22.06 2.13 44.36 3.15 66.87h-54.16c0-8.58.31-17-.09-25.42a211.56 211.56 0 0 0-2.42-25.29c-3.47-20.47-16.09-32.63-36.23-36.08a302.23 302.23 0 0 0-39.17-3.73c-15.81-.62-31.66-.15-47.49-.14h-6.28v-15.23c0-9.17-.17-18.34.12-27.49a10.48 10.48 0 0 1 2.67-6.49q43-43.29 86.24-86.27a8.89 8.89 0 0 1 5.48-2.63c21.66-.18 43.33-.11 65-.09a2.5 2.5 0 0 1 .85.15z" transform="translate(-5.43 -63.39)"/></svg>