<svg id="Слой_1" data-name="Слой 1" xmlns="http://www.w3.org/2000/svg" viewBox="0 0 390.68 431.64"><defs><style>.cls-1{fill:#fff}</style></defs><title>VPlogo</title><path class="cls-1" d="M139.32 277.59c-6.55 3.47-13.29 6.84-20 9.63l22.51-5.32zm179.93 22.63c2.32-.53 2.88-1.35 2.88-4V271.4c0-2.63-.56-3.25-2.88-2.72s-3 1.37-3 4.07v24.83c0 2.63.63 3.18 3 2.64m-189.5 12.63l-2.63.61V328l2.63-.61c2.63-.61 3.51-1.44 3.51-4.19v-7.84c0-2.76-.88-3.12-3.51-2.52m161.65-26.03V279c0-2.76-.88-3.12-3.51-2.52l-2.63.61v14.54l2.63-.61c2.63-.61 3.51-1.44 3.51-4.19m-33.29-3.52l-2.45.56v16.74l2.45-.56c2.44-.56 3.26-1.44 3.26-4.14v-10.09c0-2.69-.81-3.07-3.26-2.51"/><path class="cls-1" d="M272.34 283.8v9.53c0 9.47-4.27 12.7-15 15.17l-1.7.39v13.67l-11 2.52v-47l11-2.53c11.91-2.74 16.68-2.08 16.68 8.2m1.94-12.49l11.41-2.63c11.91-2.74 16.68-2.08 16.68 8.2v5.39c0 5.46-2.19 8.59-7.65 10.79 5-.4 7.65 1.88 7.65 6.76v12l-11 2.53v-11.88c0-3.39-1.19-4.05-4.39-3.32l-1.76.4v16.24l-11 2.53v-47zm30.74 5.59c0-10.6 2.57-13.76 14.23-16.44 11.47-2.64 14.17-.69 14.17 9.91v21.76c0 11.22-2.45 13.73-14.17 16.43-11.54 2.65-14.23 1-14.23-9.89v-21.77zm-63.9 49.07l-9.65 2.22v-9.65l9.65-2.22v9.66zm-55.7-125.37a48.06 48.06 0 0 0-14.31 5.7l1.44-8.55s5.28-.78 12.87 2.84m7.71-13.22l.49.23a44.17 44.17 0 0 1 3.16 11.45 73.49 73.49 0 0 0-8.38 1 15.47 15.47 0 0 1 4.75-12.62m-7.31 8.77s-13.86-1-17.23-5.21c3 4.58.27 10.74.27 10.74s-8.58 2.36-13.34-2.38c1.88 5.76-2.7 14-2.7 14s-4.76 1.45-11.11-2.31c10.77-21.57 22.54-31.93 34.73-35.84a17.11 17.11 0 0 1 13.1 5.94zm-51 30.61c1.83-4.73 3.69-9.07 5.58-13.06.78 5.58-.49 13-.49 13s-1.38 1.08-5.09.08m-3.23 8.38q1.05-2.55 2-5.14l9.33.56s-.92-3.41 1.25-13.14c6.11-2.44 12.37 0 12.37 0s-.41-7.33 2-13.21c4.26 0 8.27 2.06 10.46 3.43-11.05 7.45-20.05 19.77-33.66 37.47a85.56 85.56 0 0 1-22.1 20.5c5.47-5.78 10.52-13.74 14.8-22.52l4.89-.54a13.7 13.7 0 0 1-1.3-7.43m56.52 11.71l6.66 9.67s-25.8 2.9-36.1 10.09l-1.15-2.12c10.39-5.55 19.61-10 26.48-10.75a9 9 0 0 0-4.72-6.06s14.68-14.75 62.34-17.69c15.86-14 16.33-24 16.33-36.81s-15.13-33.53-15.13-33.53 5.14 24.62 6.14 31.28-.75 19-19 28.64c-18.46 3.23-52.26 11.2-63.82 24.31 2.29 2.52 3.3 2.15 3.51 2-1 .71-39.29 28.82-66.83 36.74-12.16 1.4-12.33-1.72-12.33-1.72s-.7-.55-1.79-1.57c4.28.06 11.13-1.42 22.07-6.63 28.55-13.59 34.41-38.37 61.24-56.48 14.25-9.61 25.21-11.61 32-11.57l5.67.58a12.67 12.67 0 0 1 2 .58s1.08.33.28-.53c-6.82-14.49-10.78-24.13-15.33-30.24a132.9 132.9 0 0 1 15.11 12.48s-17.45-25.24-29.4-27.4-32 17.17-32 17.17a64.8 64.8 0 0 1 22.1-8.63c-26.72 9.88-37.74 41.82-41 50.84-3.65 10-18.22 42.63-27.48 48.94a27 27 0 0 1-21.13 4.29c-3.46-4.53-6.82-10.6-7.07-17.27 0-4.37 6.68-7.87 9.83-7.34.53-4.46-.37-9.27-6.41-15.3-4.53-4.53-21.67-1.18-32.38 3-.65-4.69 3.89-11.54 8.15-26.26 5.77-19.94 18.89-33.22 21-37.16 1.13-3.94-4.49-11.8-4.49-11.8s8.47-17 36.54-41.16c22.71-19.53 49.5-24.88 58.9-26.21l-.39.91.37-.36s-2.95 10.18-6.2 19.27c7.39-11.72 14.54-23.11 19.81-30.23 9.22-12.48 8.25-11.77 22.68-6 22 8.82 13.19 14.44 10.49 26-2 8.56-3.15 21.25 1.05 26-1.53-8.14 3.54-23.27 9.65-39.21 7.66.89 25.71 3.14 36.05 5.78a21.15 21.15 0 0 0-8.49 7.18l40.69 12.65-4.46 5.1 26.06 9.37-64 110.9c-2.76-1.26-6.75-2.1-12.34-2.32-34.59-1.39-49.62 8.56-49.62 8.56m40.41 71.47c0 7.84-3.51 11.84-11.91 13.78l-2.95.68c-9.28 2.13-12.16.17-12.16-8.3v-5.14l10.09-2.32v4.58c0 2.51.94 3.11 3.2 2.59 2.51-.58 3.2-1.49 3.2-4.19v-3.38c0-4-1.26-4.35-6.4-4.36-8.84 0-10.09-2.69-10.09-9.09v-4.39c0-8 2.51-11.86 11-13.81l3.2-.73c9.22-2.12 12.1-.47 12.1 8.19v3.7l-9.78 2.25v-3c0-2.95-.57-3.57-2.95-3s-2.95 1.43-2.95 3.94v3.07c0 2.57 1.07 3.64 6.21 3.59 8.09 0 10.22 2.6 10.22 9v6.4zm-30 2.21c0 11.47-1.51 16.08-13.67 18.88s-13.61-1.07-13.61-12.61V295l11-2.52v35.8c0 2.63.63 3.3 2.95 2.77s2.82-1.46 2.82-4.1v-35.8l10.53-2.42v31.79zm-28.22-17l-7.4 1.7v38.68l-11 2.53v-38.7l-7.4 1.7v-8.27l25.77-5.93v8.28zm-26.21 15.19c0 5.46-2.19 8.59-7.65 10.79 5-.4 7.65 1.88 7.65 6.77v12l-11 2.53v-11.97c0-3.39-1.19-4.05-4.39-3.32l-1.76.4v16.24l-11 2.53v-47l11.41-2.62c11.91-2.74 16.68-2.08 16.68 8.2v5.39zm-32 36.91l-11 2.52v-47l11-2.52v47zM92.95 360l-17.49 4-6.59-45.44L80.16 316l4 40.21 4.14-42.08 11.29-2.6zM54 85s71.78-38.94 143.4-38.94C268.73 46.06 339.86 85 339.86 85L328 105.48l-52-12.39s2.36-5 6-7.35c-23.26-8.14-48.47-10.08-60-10.54-3.66-3-9.26-5.12-14.21-8.19-16.73-10.4-23.84-6.19-31.85 7.49a200.78 200.78 0 0 0-38.65 13.54c-.6-.57-1.17-1.14-1.66-1.68-2.62-2.89-11-2.1-21 1.57-6.82 2.52-10.45 14.49-12.06 21.8A157 157 0 0 0 80.7 131.2zm317.94-10.71l-2.61-1.43c-.86-.47-86.74-47-171.8-47-85.44 0-172.09 46.48-173 46.95l-2.63 1.43 42.92 74.34a85.68 85.68 0 0 0-6 12l-.3.8.18.83a58.31 58.31 0 0 0 3 8.63c.63 1.53-2.76 7.2-5.23 11.34-3.75 6.28-8.41 14.09-10.36 22.57A129.25 129.25 0 0 1 39.84 224c-2.29 5.83-4.28 10.87-4.72 16 0 .45-.05.87-.05 1.26-.89 5.37 3.94 13.47 6.68 17.08 3.47 4.57 5.59 5.2 6.88 5.27 3.36.18 8.52 4.7 13.06 8.68 2.39 2.1 4.87 4.27 7.24 6l.39.28c7.21 5.2 16.8 12.1 27.52 13.95L48.27 304v85.7l137.07-32.4 11.6 20.09 15.27-26.45 143.2-33.86v-85.7l-85.9 20.31z"/><path class="cls-1" d="M104.4 175.47c-3.41-3.15-12.59-4.2-17.05-2.62a63 63 0 0 1 6.74-3c2.31-.3 6.42-1.8 13-5 16.31-8 30.64-21 39.36-29.87-6.33 9.49-12 17.22-15.82 20.29a119.87 119.87 0 0 1-24.13 15.22s4.46 4.46 13.64.53 10.76-15.48 10.76-15.48.26 13.64-12.85 19.15c-9.45 3.67-10 3.15-10 3.15a67.69 67.69 0 0 0-21 30.69s5.77-24.4 17.31-33.05M209.89 91.3c2.88 6-3.67 15.35-3.67 15.35-.79-9.45-5-13.22-11.32-8.93-4.07 2.77-8.65 8.23-17 19.51 2.62-16.79 18.41-35 18.41-35s10.69 3.04 13.58 9.07"/><path class="cls-1" d="M103.01 170.94l28.28-17.73-.37 3.18-.69 3.77-1.03 3.25-2.7 4.46-3.73 3.76-4.32 2.55-4.55.91-4.94-.33-5.95-3.82z"/></svg>