<svg id="Layer_1" data-name="Layer 1" xmlns="http://www.w3.org/2000/svg" viewBox="0 0 300.26 468.32">
  <defs>
    <style>
      .cls-1 {
        fill: #232320;
      }

      .cls-2 {
        fill: #fff;
      }

      .cls-3 {
        fill: #caba9f;
      }
    </style>
  </defs>
  <title>R31Logo</title>
  <g>
    <path class="cls-1" d="M385,56,306.6,134.43" transform="translate(-84.73 -31.81)"/>
    <polygon class="cls-2" points="60.73 390.32 42.87 370.8 167.85 242.67 50.55 242.67 162.74 128.87 41.93 128.87 41.93 102.64 227.05 102.64 113.9 216.44 232.24 216.44 60.73 390.32"/>
    <polygon class="cls-2" points="274.32 309.89 248.09 298.24 248.09 130.84 223.44 130.84 251.32 102.61 274.32 102.61 274.32 309.89"/>
    <path class="cls-1" d="M306.54,134.43" transform="translate(-84.73 -31.81)"/>
    <path class="cls-1" d="M292.16,162.66" transform="translate(-84.73 -31.81)"/>
    <path class="cls-1" d="M319,136.43" transform="translate(-84.73 -31.81)"/>
    <g>
      <polygon class="cls-3" points="30.99 359.52 0 327.45 0 102.64 26.23 102.64 26.23 315.83 50 340.5 30.99 359.52"/>
      <polygon class="cls-3" points="136.32 468.16 272.32 327.45 246.09 315.83 136.16 429.36 90.04 382.52 71.51 401.49 136 468.16 136.16 468.32 136.16 468.32 136.16 468.32 136.32 468.16"/>
      <g>
        <path class="cls-3" d="M121.42,32l11,10.56V64.9l-6.32,6.74L132.39,78v28.69H117.18V78H99.73l0.16,29.11H84.73V31.81ZM99.88,47.18v16h17.3v-16H99.88Z" transform="translate(-84.73 -31.81)"/>
        <path class="cls-3" d="M150.17,32.23h26.92l10.5,10.51V97l-10.5,10.09h-26.5l-11-10.92V42.74Zm5,15.16v45h17.25v-45H155.19Z" transform="translate(-84.73 -31.81)"/>
        <path class="cls-3" d="M195.35,32.23L210.93,32V91.92H227.7V32.23h15.16V96.15l-10.5,10.92h-26.5l-10.51-10.5V32.23Z" transform="translate(-84.73 -31.81)"/>
        <path class="cls-3" d="M251.9,32.23H271l15.57,42-0.21-42h14.9v74.84H281.53L266.84,62.49l0.1,44.58H252.11Z" transform="translate(-84.73 -31.81)"/>
        <path class="cls-3" d="M311.33,32.23h37.16L359,42.79V94.53L346.72,107H311.33V32.23ZM326.54,47V92.18h17.3V47h-17.3Z" transform="translate(-84.73 -31.81)"/>
      </g>
    </g>
  </g>
</svg>
